<svg xmlns="http://www.w3.org/2000/svg" version="1.1" xmlns:xlink="http://www.w3.org/1999/xlink" xmlns:svgjs="http://svgjs.dev/svgjs" width="1500" height="371" viewBox="0 0 1500 371"><g transform="matrix(1,0,0,1,-0.9090909090909918,-0.6473458564352939)"><svg viewBox="0 0 396 98" data-background-color="#fafafa" preserveAspectRatio="xMidYMid meet" height="371" width="1500" xmlns="http://www.w3.org/2000/svg" xmlns:xlink="http://www.w3.org/1999/xlink"><g id="tight-bounds" transform="matrix(1,0,0,1,0.2400000000000091,0.17099701868102102)"><svg viewBox="0 0 395.52 97.65800596263797" height="97.65800596263797" width="395.52"><g><svg viewBox="0 0 601.4535480388166 148.50514305376345" height="97.65800596263797" width="395.52"><g><rect width="9.690555034657033" height="107.99397161290321" x="170.87504788725641" y="20.25558572043012" fill="#130912" opacity="1" stroke-width="0" stroke="transparent" fill-opacity="1" class="rect-yte-0" data-fill-palette-color="primary" rx="1%" id="yte-0" data-palette-color="#130912"></rect></g><g transform="matrix(1,0,0,1,205.93354803881667,20.524227440860223)"><svg viewBox="0 0 395.52 107.456688172043" height="107.456688172043" width="395.52"><g id="textblocktransform"><svg viewBox="0 0 395.52 107.456688172043" height="107.456688172043" width="395.52" id="textblock"><g><svg viewBox="0 0 395.52 107.456688172043" height="107.456688172043" width="395.52"><g transform="matrix(1,0,0,1,0,0)"><svg width="395.52" viewBox="1.95 -37.4 142.74 37.9" height="107.456688172043" data-palette-color="#130912"><g class="wordmark-text-0" data-fill-palette-color="primary" id="text-0"><path d="M21.35-10.75Q20.15-8 18.68-5.98 17.2-3.95 15.58-2.58 13.95-1.2 12.3-0.55 10.65 0.1 9.1 0.1L9.1 0.1Q7.55 0.1 6.28-0.6 5-1.3 4.05-2.7 3.1-4.1 2.53-6.15 1.95-8.2 1.95-10.95L1.95-10.95Q1.95-15.65 3.25-20.23 4.55-24.8 6.9-28.45 9.25-32.1 12.48-34.33 15.7-36.55 19.6-36.55L19.6-36.55Q20.8-36.55 21.9-36.05 23-35.55 23.8-34.65 24.6-33.75 25.08-32.45 25.55-31.15 25.55-29.55L25.55-29.55Q25.55-29.25 25.55-28.93 25.55-28.6 25.5-28.25L25.5-28.25 18.95-26.5Q18.35-27.75 17.55-27.75L17.55-27.75Q16.75-27.75 15.88-26.83 15-25.9 14.15-24.43 13.3-22.95 12.5-21.13 11.7-19.3 11.1-17.45 10.5-15.6 10.13-13.93 9.75-12.25 9.75-11.2L9.75-11.2Q9.75-9.6 10.18-8.95 10.6-8.3 11.3-8.3L11.3-8.3Q11.85-8.3 12.55-8.72 13.25-9.15 13.85-9.83 14.45-10.5 14.95-11.35 15.45-12.2 15.65-13.05L15.65-13.05 21.35-10.75ZM34.5-1.6Q32.95-1.6 31.22-1.5 29.5-1.4 27.75-1.2 26-1 24.32-0.68 22.65-0.35 21.3 0.1L21.3 0.1Q21.6-2.15 22-4.9 22.4-7.65 22.92-10.6 23.45-13.55 23.97-16.55 24.5-19.55 25.05-22.3L25.05-22.3Q26.3-28.85 27.7-35.65L27.7-35.65 36.45-36.8Q35.1-31 33.85-25.5L33.85-25.5Q33.3-23.15 32.75-20.63 32.2-18.1 31.7-15.7 31.2-13.3 30.8-11.05 30.4-8.8 30.15-7.05L30.15-7.05Q31.4-7.15 32.82-7.18 34.25-7.2 35.35-7.2L35.35-7.2Q35.4-6.25 35.5-5.33 35.6-4.4 35.72-3.65 35.85-2.9 35.92-2.33 36-1.75 36.05-1.55L36.05-1.55Q35.65-1.55 35.27-1.58 34.9-1.6 34.5-1.6L34.5-1.6ZM63.8-27.05Q63.8-22.95 62.92-19.33 62.05-15.7 60.59-12.68 59.15-9.65 57.22-7.28 55.3-4.9 53.2-3.23 51.09-1.55 48.95-0.68 46.8 0.2 44.84 0.2L44.84 0.2Q43.2 0.2 41.84-0.43 40.5-1.05 39.5-2.27 38.5-3.5 37.92-5.43 37.34-7.35 37.34-10.05L37.34-10.05Q37.34-12.85 38.05-15.95 38.75-19.05 39.95-22.1 41.15-25.15 42.9-27.9 44.65-30.65 46.75-32.77 48.84-34.9 51.25-36.15 53.65-37.4 56.25-37.4L56.25-37.4Q58.5-37.4 59.97-36.48 61.45-35.55 62.27-34.08 63.09-32.6 63.45-30.75 63.8-28.9 63.8-27.05L63.8-27.05ZM44.8-11.35Q44.8-10.8 45-10.2 45.2-9.6 45.55-9.15 45.9-8.7 46.42-8.38 46.95-8.05 47.55-8.05L47.55-8.05Q49.8-8.05 51.55-9.6 53.3-11.15 54.45-13.4 55.59-15.65 56.22-18.2 56.84-20.75 56.84-22.85L56.84-22.85Q56.84-23.45 56.77-24.15 56.7-24.85 56.47-25.45 56.25-26.05 55.77-26.48 55.3-26.9 54.5-26.9L54.5-26.9Q52.9-26.9 51.55-26.1 50.2-25.3 49.12-23.98 48.05-22.65 47.25-20.98 46.45-19.3 45.87-17.57 45.3-15.85 45.05-14.2 44.8-12.55 44.8-11.35L44.8-11.35ZM73.94-1.35L64.94 0.05Q66.09-5.45 67.14-10.8L67.14-10.8Q67.59-13.05 68.04-15.5 68.49-17.95 68.92-20.33 69.34-22.7 69.67-24.93 69.99-27.15 70.24-29L70.24-29Q69.09-29.15 67.92-29.1 66.74-29.05 65.59-29.4L65.59-29.4Q65.64-30.2 65.64-31.25 65.64-32.3 65.69-33.35L65.69-33.35Q65.74-34.5 65.79-35.8L65.79-35.8Q67.09-35.7 68.39-35.65 69.69-35.6 70.99-35.6L70.99-35.6Q73.54-35.6 75.92-35.73 78.29-35.85 80.32-36.02 82.34-36.2 84.29-36.45L84.29-36.45 83.74-33.75Q83.49-32.6 83.27-31.4 83.04-30.2 82.84-29.35L82.84-29.35Q81.74-29.05 80.62-28.93 79.49-28.8 78.39-28.6L78.39-28.6Q78.04-26.9 77.64-24.83 77.24-22.75 76.87-20.53 76.49-18.3 76.14-16 75.79-13.7 75.44-11.6L75.44-11.6Q74.64-6.65 73.94-1.35L73.94-1.35ZM86.69-1.5L78.99 0.1Q80.29-6.8 81.54-13.45L81.54-13.45Q81.99-16.25 82.54-19.28 83.09-22.3 83.59-25.25 84.09-28.2 84.54-30.98 84.99-33.75 85.34-36.05L85.34-36.05 93.44-36.6Q92.59-33.1 91.77-29.3 90.94-25.5 90.24-21.9L90.24-21.9 95.19-22.45Q95.89-26 96.44-29.33 96.99-32.65 97.89-36.2L97.89-36.2Q99.04-36.4 100.44-36.52 101.84-36.65 103.04-36.75 104.24-36.85 105.07-36.93 105.89-37 105.89-37L105.89-37Q105.19-34.75 104.57-32.08 103.94-29.4 103.34-26.53 102.74-23.65 102.19-20.7 101.64-17.75 101.19-15.1L101.19-15.1Q100.09-8.75 99.14-2.1L99.14-2.1 91.34-1.2Q91.99-4.2 92.49-7.05L92.49-7.05Q92.99-9.45 93.52-12.05 94.04-14.65 94.34-16.5L94.34-16.5 89.49-16.05Q89.14-14.15 88.67-11.65 88.19-9.15 87.79-6.9L87.79-6.9Q87.24-4.2 86.69-1.5L86.69-1.5ZM120.59-20.85L118.89-11.9Q117.14-11.95 115.56-12 113.99-12.05 112.36-12.08 110.74-12.1 109.64-12.1L109.64-12.1Q108.74-12.1 107.56-12.08 106.39-12.05 105.19-12 103.99-11.95 102.69-11.95L102.69-11.95 105.09-20.8Q106.44-20.75 107.66-20.7 108.89-20.65 110.14-20.63 111.39-20.6 112.24-20.6L112.24-20.6Q113.29-20.6 114.74-20.63 116.19-20.65 117.61-20.7 119.04-20.75 120.59-20.85L120.59-20.85ZM139.94-2.3Q139.84-2.25 139.24-2.1 138.64-1.95 137.74-1.7 136.84-1.45 135.76-1.15 134.69-0.85 133.66-0.55 132.64-0.25 131.74 0.03 130.84 0.3 130.34 0.5L130.34 0.5Q130.19-1.5 130.09-3.4L130.09-3.4Q129.99-5.05 129.86-6.7 129.74-8.35 129.69-9.45L129.69-9.45Q129.24-8.35 128.51-6.7 127.79-5.05 127.09-3.45L127.09-3.45Q126.24-1.6 125.34 0.3L125.34 0.3 116.84-0.45Q119.34-4.9 121.84-9.25 124.34-13.6 126.44-18.35L126.44-18.35Q126.14-20.6 125.86-22.35 125.59-24.1 125.24-25.8 124.89-27.5 124.49-29.23 124.09-30.95 123.69-33.15L123.69-33.15 131.69-36.45Q131.94-34.1 132.26-31.25 132.59-28.4 132.84-26L132.84-26Q133.99-28.5 135.11-31 136.24-33.5 137.44-35.95L137.44-35.95 144.69-34Q143.39-31.8 142.34-29.95 141.29-28.1 140.34-26.25 139.39-24.4 138.44-22.48 137.49-20.55 136.39-18.2L136.39-18.2Q136.69-16 137.09-14.05 137.49-12.1 137.96-10.2 138.44-8.3 138.91-6.38 139.39-4.45 139.94-2.3L139.94-2.3Z" fill="#130912" data-fill-palette-color="primary"></path></g></svg></g></svg></g></svg></g></svg></g><g><svg viewBox="0 0 145.50710277035319 148.50514305376345" height="148.50514305376345" width="145.50710277035319"><g><svg xmlns="http://www.w3.org/2000/svg" xmlns:xlink="http://www.w3.org/1999/xlink" version="1.1" x="0" y="0" viewBox="0.8253431670471107 0.43 97.53635298094483 99.54599999999999" enable-background="new 0 0 100 100" xml:space="preserve" height="148.50514305376345" width="145.50710277035319" class="icon-icon-0" data-fill-palette-color="accent" id="icon-0"><g fill="#e77917" data-fill-palette-color="accent"><path d="M98.287 18.55C96.986 5.553 83.451 1.892 82.873 1.742L77.826 0.432 81.043 4.539C82.925 6.939 87.512 14.201 86.166 18.901 85.639 20.752 84.218 22.074 81.874 22.927 81.839 22.937 78.359 24.078 71.565 25.211L71.072 25.299 70.7 25.619C70.686 25.63 69.355 26.754 67.839 26.754 67.016 26.754 66.273 26.411 65.539 25.678 65.25 25.402 58.375 18.921 49.047 18.921 43.512 18.921 38.33 21.193 33.648 25.677 32.915 26.379 32.151 26.719 31.314 26.719 29.798 26.719 28.498 25.627 28.494 25.623L28.117 25.293 27.622 25.21C20.842 24.08 17.362 22.942 17.36 22.942 14.97 22.073 13.55 20.752 13.021 18.9 11.676 14.2 16.264 6.938 18.145 4.538L21.363 0.43 16.313 1.741C15.737 1.892 2.2 5.553 0.9 18.55-0.315 30.71 13.583 38.157 21.976 41.515L23.058 41.931 23.879 41.123C24.129 40.878 24.823 40.372 25.38 40.372 26 40.372 26.528 41.171 26.863 41.842 28.487 45.089 25.219 47.596 24.868 47.866L24 48.395V49.277C24 49.488 24.206 54.537 27.94 60.76L28.426 61.424 29.223 61.579C29.271 61.59 34.05 62.614 34.934 66.155L36.12 70.855 38.609 75.916C39.56 77.819 40.775 90.241 40.775 91.578 40.775 93.326 42.264 97.654 46.683 99.127L49.228 99.975 49 97.305C48.261 88.65 47.017 65.591 49.593 58.095 52.169 65.59 50.925 88.649 50.186 97.305L49.957 99.976 52.501 99.128C56.92 97.655 58.406 93.327 58.406 91.579 58.406 90.242 59.621 77.82 60.571 75.917L62.921 71.216 64.23 66.156C65.115 62.615 69.875 61.591 69.916 61.581L70.682 61.43 70.656 60.761C74.387 54.537 74 49.489 74 49.277V48.395L73.721 47.865C73.578 47.757 70.435 45.185 72.109 41.841 72.444 41.17 73.08 40.371 73.699 40.371 74.257 40.371 75.004 40.877 75.244 41.112L76.094 41.95 77.198 41.514C85.589 38.157 99.503 30.71 98.287 18.55" fill="#e77917" data-fill-palette-color="accent"></path></g></svg></g></svg></g></svg></g><defs></defs></svg><rect width="395.52" height="97.65800596263797" fill="none" stroke="none" visibility="hidden"></rect></g></svg></g></svg>